<svg width="64" height="64" viewBox="0 0 64 64" fill="none" xmlns="http://www.w3.org/2000/svg">
<g clip-path="url(#clip0_716_204)">
<path d="M21.3334 10.6666C18.7427 10.617 16.217 11.4803 14.1986 13.1054C12.1803 14.7305 10.7979 17.0138 10.2934 19.5555H3.55566V23.111H10.3646C10.8732 25.6374 12.2469 27.9073 14.2491 29.5298C16.2512 31.1523 18.7565 32.0258 21.3334 31.9999H30.2223V10.6666H21.3334Z" fill="#0062FF"/>
<path d="M60.0711 40.889H53.5822C53.0649 38.3537 51.679 36.0784 49.6636 34.4556C47.6481 32.8329 45.1295 31.9644 42.5422 32.0001H33.7778V35.5556H24.8889C24.4174 35.5556 23.9652 35.7429 23.6318 36.0763C23.2984 36.4097 23.1111 36.8619 23.1111 37.3334C23.1111 37.8049 23.2984 38.2571 23.6318 38.5905C23.9652 38.9239 24.4174 39.1112 24.8889 39.1112H33.7778V46.2223H24.8889C24.4174 46.2223 23.9652 46.4096 23.6318 46.743C23.2984 47.0764 23.1111 47.5286 23.1111 48.0001C23.1111 48.4716 23.2984 48.9238 23.6318 49.2572C23.9652 49.5906 24.4174 49.7779 24.8889 49.7779H33.7778V53.3334H42.56C45.152 53.3802 47.6784 52.5162 49.699 50.8919C51.7196 49.2677 53.1063 46.9861 53.6178 44.4445H60.0889L60.0711 40.889Z" fill="#0062FF"/>
</g>
<defs>
<clipPath id="clip0_716_204">
<rect width="64" height="64" fill="white"/>
</clipPath>
</defs>
</svg>
