<svg width="44" height="44" viewBox="0 0 44 44" fill="none" xmlns="http://www.w3.org/2000/svg">
<g clip-path="url(#clip0_286_344)">
<path d="M40.3332 23.2222C40.1724 23.2231 40.0129 23.1923 39.864 23.1315C39.7151 23.0707 39.5796 22.981 39.4654 22.8678L21.9999 5.38999L4.53432 22.8678C4.3005 23.068 3.99974 23.1726 3.69214 23.1607C3.38453 23.1489 3.09274 23.0214 2.87507 22.8037C2.6574 22.586 2.52988 22.2942 2.518 21.9866C2.50612 21.679 2.61075 21.3782 2.81098 21.1444L21.1443 2.8111C21.3733 2.58346 21.6831 2.45569 22.006 2.45569C22.3289 2.45569 22.6386 2.58346 22.8676 2.8111L41.201 21.1444C41.3692 21.316 41.4831 21.5334 41.5284 21.7693C41.5738 22.0052 41.5486 22.2493 41.456 22.471C41.3634 22.6927 41.2075 22.8822 41.0078 23.0158C40.8081 23.1494 40.5735 23.2212 40.3332 23.2222Z" fill="black"/>
<path d="M22.0002 9.52112L7.3335 24.2367V39.1111C7.3335 39.7594 7.59103 40.3812 8.04946 40.8396C8.50788 41.298 9.12963 41.5556 9.77794 41.5556H18.3335V29.3333H25.6668V41.5556H34.2224C34.8707 41.5556 35.4924 41.298 35.9509 40.8396C36.4093 40.3812 36.6668 39.7594 36.6668 39.1111V24.1511L22.0002 9.52112Z" fill="black"/>
</g>
<defs>
<clipPath id="clip0_286_344">
<rect width="44" height="44" fill="white"/>
</clipPath>
</defs>
</svg>
