<svg width="253" height="234" viewBox="0 0 253 234" fill="none" xmlns="http://www.w3.org/2000/svg">
<g clip-path="url(#clip0_815_275)">
<path fill-rule="evenodd" clip-rule="evenodd" d="M32.39 16.24L16.43 0H0.570007V37.01H11.13V9.9L27.41 26.35H27.5H32.39H37.38L53.65 9.9V37.01H64.21V0H48.35L32.39 16.24Z" fill="white"/>
<path d="M91.44 0H80.88V37.01H91.44V0Z" fill="white"/>
<path d="M109.06 0V37H119.62V26.49H164.25C167.666 26.49 170.942 25.133 173.358 22.7175C175.773 20.3021 177.13 17.026 177.13 13.61V12.91C177.13 9.48606 175.77 6.20234 173.349 3.78125C170.928 1.36016 167.644 0 164.22 0H109.06ZM163.95 17.07H119.62V9.56H163.62C165.01 9.56 166.83 11.28 166.95 13.27V13.34C166.99 15.39 165.33 17.07 163.95 17.07Z" fill="white"/>
<path d="M216.87 9.76L208.77 21.19H216.87V32.13H199.66L196.17 37.01H182.21L208.63 0H216.87V9.76Z" fill="white"/>
<path d="M216.87 9.76L224.97 21.19H216.87V32.13H234.08L237.58 37.01H251.53L225.11 0H216.87V9.76Z" fill="white"/>
<path d="M249.05 43.34C249.05 74.48 228.74 103.74 212.11 129.04" stroke="white" stroke-width="6" stroke-miterlimit="10"/>
<path d="M181 152.82C210.74 115.82 237.27 79.82 237.27 43.32" stroke="white" stroke-width="6" stroke-miterlimit="10"/>
<path d="M130.33 199C162.19 162.56 224.68 96.09 225.66 43.32" stroke="white" stroke-width="6" stroke-miterlimit="10"/>
<path d="M213.39 43.34C213.39 43.8 213.39 44.27 213.39 44.73C213.39 93.95 159.24 154.73 88.83 231.11" stroke="white" stroke-width="6" stroke-miterlimit="10"/>
<path d="M116.43 188.28C162.8 134.63 203.7 80.63 202.04 44.42C202.04 44.06 202.04 43.69 202.04 43.32" stroke="white" stroke-width="6" stroke-miterlimit="10"/>
<path d="M190.18 43.34C190.18 43.69 190.18 44.03 190.18 44.34C190.18 77.12 169.64 109.34 130.27 158.49" stroke="white" stroke-width="6" stroke-miterlimit="10"/>
<path d="M178.63 43.34C178.63 43.66 178.63 43.97 178.63 44.29C178.63 72.29 163.19 99.53 133.05 139.54" stroke="white" stroke-width="6" stroke-miterlimit="10"/>
<path d="M166.79 43.34C166.79 43.54 166.79 43.74 166.79 43.94C166.22 72.3 153.99 92.78 133.51 124.57" stroke="white" stroke-width="6" stroke-miterlimit="10"/>
<path d="M155.2 43.34C155.2 43.67 155.2 44 155.2 44.34C155.2 66.09 145.57 87.78 129.34 112.56" stroke="white" stroke-width="6" stroke-miterlimit="10"/>
<path d="M143.43 43.34C143.43 43.95 143.43 44.56 143.43 45.17C143.9 61.08 137.43 77.81 124.97 99.53" stroke="white" stroke-width="6" stroke-miterlimit="10"/>
<path d="M131.92 43.34C131.92 44.26 131.98 45.18 131.98 46.09C131.98 60.01 127.78 71.84 117.98 91.21" stroke="white" stroke-width="6" stroke-miterlimit="10"/>
<path d="M120 43.5C120 56.38 116.55 72.24 109.99 84.24" stroke="white" stroke-width="6" stroke-miterlimit="10"/>
<path d="M108.5 43.5C108.443 54.1867 105.934 68.1422 101.38 77.81" stroke="white" stroke-width="6" stroke-miterlimit="10"/>
<path d="M97 43.5C96.9461 51.8973 94.9252 64.7111 91.33 72.3" stroke="white" stroke-width="6" stroke-miterlimit="10"/>
<path d="M3 50.72C3.05 49.01 3.07001 47.29 3.07001 45.57C3.07001 44.82 3.07001 44.07 3.07001 43.32" stroke="white" stroke-width="6" stroke-miterlimit="10"/>
<path d="M85 43.5C85.0077 50.6051 83.747 61.1764 81.5399 67.93" stroke="white" stroke-width="6" stroke-miterlimit="10"/>
<path d="M73.21 43.34C73.21 44.06 73.21 44.78 73.21 45.5C73.2038 51.7168 72.4552 57.9107 70.98 63.95" stroke="white" stroke-width="6" stroke-miterlimit="10"/>
<path d="M3 50.72C3.05 49.01 3.07001 47.29 3.07001 45.57C3.07001 44.82 3.07001 44.07 3.07001 43.32" stroke="white" stroke-width="6" stroke-miterlimit="10"/>
<path d="M3 50.72C3.05 49.01 3.07001 47.29 3.07001 45.57C3.07001 44.82 3.07001 44.07 3.07001 43.32" stroke="white" stroke-width="6" stroke-miterlimit="10"/>
<path d="M61.09 43.34C61.09 44.09 61.09 44.84 61.09 45.59C61.09 50.83 60.8666 56.0167 60.42 61.15" stroke="white" stroke-width="6" stroke-miterlimit="10"/>
<path d="M49.5101 43.34C49.5101 44.09 49.5101 44.84 49.5101 45.59C49.5101 49.83 49.36 54.0333 49.06 58.2" stroke="white" stroke-width="6" stroke-miterlimit="10"/>
<path d="M3 50.72C3.05 49.01 3.07001 47.29 3.07001 45.57C3.07001 44.82 3.07001 44.07 3.07001 43.32" stroke="white" stroke-width="6" stroke-miterlimit="10"/>
<path d="M3 50.72C3.05 49.01 3.07001 47.29 3.07001 45.57C3.07001 44.82 3.07001 44.07 3.07001 43.32" stroke="white" stroke-width="6" stroke-miterlimit="10"/>
<path d="M38.08 43.34C38.08 44.09 38.08 44.84 38.08 45.59C38.08 49.0033 37.9833 52.3867 37.79 55.74" stroke="white" stroke-width="6" stroke-miterlimit="10"/>
<path d="M26.33 43.34C26.33 44.09 26.33 44.84 26.33 45.59C26.33 48.2567 26.2667 50.9433 26.14 53.65" stroke="white" stroke-width="6" stroke-miterlimit="10"/>
<path d="M3 50.72C3.05 49.01 3.07001 47.29 3.07001 45.57C3.07001 44.82 3.07001 44.07 3.07001 43.32" stroke="white" stroke-width="6" stroke-miterlimit="10"/>
<path d="M3 50.72C3.05 49.01 3.07001 47.29 3.07001 45.57C3.07001 44.82 3.07001 44.07 3.07001 43.32" stroke="white" stroke-width="6" stroke-miterlimit="10"/>
<path d="M14.79 43.34C14.79 44.09 14.79 44.84 14.79 45.59C14.79 47.73 14.75 49.86 14.67 51.98" stroke="white" stroke-width="6" stroke-miterlimit="10"/>
<path d="M122.2 180.9H122.19" stroke="white" stroke-width="6" stroke-miterlimit="10"/>
</g>
<defs>
<clipPath id="clip0_815_275">
<rect width="252.05" height="233.12" fill="white"/>
</clipPath>
</defs>
</svg>
