<svg width="72" height="72" viewBox="0 0 72 72" fill="none" xmlns="http://www.w3.org/2000/svg">
<g clip-path="url(#clip0_716_420)">
<path d="M5 17H67V55H5V17Z" fill="#012169"/>
<path d="M12.2656 17L35.9031 31.3292L59.4437 17H67V21.9083L43.75 36.0792L67 50.1708V55H59.25L36 40.8292L12.8469 55H5V50.25L28.1531 36.1583L5 22.0667V17H12.2656Z" fill="white"/>
<path d="M46.075 39.2458L67 51.8333V55L40.7469 39.2458H46.075ZM28.25 40.8292L28.8312 43.6L10.2312 55H5L28.25 40.8292ZM67 17V17.2375L42.8781 32.1208L43.0719 28.6375L62.1562 17H67ZM5 17L28.1531 30.9333H22.3406L5 20.325V17Z" fill="#C8102E"/>
<path d="M28.3469 17V55H43.8469V17H28.3469ZM5 29.6667V42.3333H67V29.6667H5Z" fill="white"/>
<path d="M5 32.2792V39.8792H67V32.2792H5ZM31.4469 17V55H40.7469V17H31.4469Z" fill="#C8102E"/>
</g>
<defs>
<clipPath id="clip0_716_420">
<rect width="62" height="38" fill="white" transform="translate(5 17)"/>
</clipPath>
</defs>
</svg>
