<svg width="64" height="64" viewBox="0 0 64 64" fill="none" xmlns="http://www.w3.org/2000/svg">
<mask id="mask0_716_214" style="mask-type:luminance" maskUnits="userSpaceOnUse" x="6" y="3" width="52" height="58">
<path d="M50.4747 26.6666V37.3333M36.6187 50.6666L41.2374 47.9999L45.8561 45.3333M27.3814 50.6666L22.7614 47.9999L18.1427 45.3333M13.5254 26.6666V37.3333M18.1427 18.6666L22.7627 15.9999L27.3814 13.3333M36.6187 13.3333L41.2374 15.9999L45.8561 18.6666" stroke="white" stroke-width="4" stroke-linecap="round" stroke-linejoin="round"/>
<path d="M32 58.6666C33.4145 58.6666 34.771 58.1047 35.7712 57.1045C36.7714 56.1043 37.3333 54.7477 37.3333 53.3332C37.3333 51.9188 36.7714 50.5622 35.7712 49.562C34.771 48.5618 33.4145 47.9999 32 47.9999C30.5855 47.9999 29.229 48.5618 28.2288 49.562C27.2286 50.5622 26.6667 51.9188 26.6667 53.3332C26.6667 54.7477 27.2286 56.1043 28.2288 57.1045C29.229 58.1047 30.5855 58.6666 32 58.6666ZM32 15.9999C33.4145 15.9999 34.771 15.438 35.7712 14.4378C36.7714 13.4376 37.3333 12.0811 37.3333 10.6666C37.3333 9.2521 36.7714 7.89554 35.7712 6.89535C34.771 5.89515 33.4145 5.33325 32 5.33325C30.5855 5.33325 29.229 5.89515 28.2288 6.89535C27.2286 7.89554 26.6667 9.2521 26.6667 10.6666C26.6667 12.0811 27.2286 13.4376 28.2288 14.4378C29.229 15.438 30.5855 15.9999 32 15.9999ZM32 37.3333C33.4145 37.3333 34.771 36.7713 35.7712 35.7712C36.7714 34.771 37.3333 33.4144 37.3333 31.9999C37.3333 30.5854 36.7714 29.2289 35.7712 28.2287C34.771 27.2285 33.4145 26.6666 32 26.6666C30.5855 26.6666 29.229 27.2285 28.2288 28.2287C27.2286 29.2289 26.6667 30.5854 26.6667 31.9999C26.6667 33.4144 27.2286 34.771 28.2288 35.7712C29.229 36.7713 30.5855 37.3333 32 37.3333ZM50.6667 26.6666C52.0812 26.6666 53.4377 26.1047 54.4379 25.1045C55.4381 24.1043 56 22.7477 56 21.3333C56 19.9188 55.4381 18.5622 54.4379 17.562C53.4377 16.5618 52.0812 15.9999 50.6667 15.9999C49.2522 15.9999 47.8956 16.5618 46.8954 17.562C45.8952 18.5622 45.3333 19.9188 45.3333 21.3333C45.3333 22.7477 45.8952 24.1043 46.8954 25.1045C47.8956 26.1047 49.2522 26.6666 50.6667 26.6666ZM50.6667 47.9999C52.0812 47.9999 53.4377 47.438 54.4379 46.4378C55.4381 45.4376 56 44.0811 56 42.6666C56 41.2521 55.4381 39.8955 54.4379 38.8953C53.4377 37.8952 52.0812 37.3333 50.6667 37.3333C49.2522 37.3333 47.8956 37.8952 46.8954 38.8953C45.8952 39.8955 45.3333 41.2521 45.3333 42.6666C45.3333 44.0811 45.8952 45.4376 46.8954 46.4378C47.8956 47.438 49.2522 47.9999 50.6667 47.9999ZM13.3333 26.6666C14.7478 26.6666 16.1044 26.1047 17.1046 25.1045C18.1048 24.1043 18.6667 22.7477 18.6667 21.3333C18.6667 19.9188 18.1048 18.5622 17.1046 17.562C16.1044 16.5618 14.7478 15.9999 13.3333 15.9999C11.9188 15.9999 10.5623 16.5618 9.5621 17.562C8.5619 18.5622 8 19.9188 8 21.3333C8 22.7477 8.5619 24.1043 9.5621 25.1045C10.5623 26.1047 11.9188 26.6666 13.3333 26.6666ZM13.3333 47.9999C14.7478 47.9999 16.1044 47.438 17.1046 46.4378C18.1048 45.4376 18.6667 44.0811 18.6667 42.6666C18.6667 41.2521 18.1048 39.8955 17.1046 38.8953C16.1044 37.8952 14.7478 37.3333 13.3333 37.3333C11.9188 37.3333 10.5623 37.8952 9.5621 38.8953C8.5619 39.8955 8 41.2521 8 42.6666C8 44.0811 8.5619 45.4376 9.5621 46.4378C10.5623 47.438 11.9188 47.9999 13.3333 47.9999Z" fill="white" stroke="white" stroke-width="4" stroke-linecap="round" stroke-linejoin="round"/>
</mask>
<g mask="url(#mask0_716_214)">
<path d="M0 0H64V64H0V0Z" fill="#0062FF"/>
</g>
</svg>
