<svg width="263" height="245" viewBox="0 0 263 245" fill="none" xmlns="http://www.w3.org/2000/svg">
<g clip-path="url(#clip0_815_238)">
<path d="M33.1866 16.9275V27.4654H27.9823L11.0135 10.3191V38.5767H0V0H16.5411L33.1866 16.9275Z" fill="white"/>
<path d="M49.832 0H66.3732V38.5767H55.3596V10.3191L38.3805 27.4654H33.1866V16.9275L49.832 0Z" fill="white"/>
<path d="M94.7726 0H83.7591V38.5767H94.7726V0Z" fill="white"/>
<path d="M113.149 0V38.5662H124.163V27.6114H170.71C174.272 27.6114 177.689 26.1969 180.208 23.6792C182.728 21.1615 184.143 17.7467 184.143 14.1861V13.4565C184.143 9.88762 182.724 6.4649 180.199 3.94132C177.674 1.41773 174.249 0 170.678 0H113.149ZM170.397 17.7926H124.163V9.96469H170.053C171.502 9.96469 173.4 11.7575 173.526 13.8317V13.9047C173.567 16.0415 171.836 17.7926 170.397 17.7926Z" fill="white"/>
<path d="M225.589 10.1732L217.142 22.087H225.589V33.4901H207.64L203.99 38.5767H189.441L216.996 0H225.589V10.1732Z" fill="white"/>
<path d="M225.589 10.1732L234.037 22.087H225.589V33.4901H243.539L247.178 38.5767H261.738L234.183 0H225.589V10.1732Z" fill="white"/>
<path d="M259.871 48.4788C259.893 54.3579 259.401 60.2277 258.401 66.0213C258.401 66.0213 253.771 86.8648 219.5 135.5" stroke="white" stroke-width="6" stroke-miterlimit="10"/>
<path d="M247.512 48.4788C247.512 49.1042 247.512 49.7296 247.512 50.355C247.52 55.2692 247.171 60.1776 246.469 65.0415C246.469 65.0415 242.784 93.1136 190 160" stroke="white" stroke-width="6" stroke-miterlimit="10"/>
<path d="M235.894 48.4788C235.894 49.1042 235.894 49.7296 235.894 50.355C235.893 54.9849 235.58 59.6095 234.955 64.1972C234.955 64.1972 234.611 100.679 136.125 208.623" stroke="white" stroke-width="6" stroke-miterlimit="10"/>
<path d="M223.295 48.4788C223.295 49.1042 223.295 49.7296 223.295 50.355C223.297 54.6941 223.018 59.0289 222.461 63.332C222.461 63.332 222.147 104.652 94 242.5" stroke="white" stroke-width="6" stroke-miterlimit="10"/>
<path d="M211.051 48.4788C211.051 49.2918 211.051 50.1049 211.051 50.9283C211.054 54.8117 210.834 58.692 210.394 62.5503C210.394 62.5503 208.756 98.5837 121.827 198.47" stroke="white" stroke-width="6" stroke-miterlimit="10"/>
<path d="M39.9761 48.4788C39.9761 49.3544 39.9761 50.2404 39.9761 51.1264C39.9761 52.0124 39.9761 52.8774 39.9761 53.7426C39.9761 54.3888 39.705 60.3301 39.632 60.9764" stroke="white" stroke-width="6" stroke-miterlimit="10"/>
<path d="M3.55649 57.3282C3.55649 56.0878 3.55649 53.3465 3.55649 52.0853C3.55649 50.8241 3.55649 49.6775 3.55649 48.4788" stroke="white" stroke-width="6" stroke-miterlimit="10"/>
<path d="M198.671 48.4788C198.671 49.2918 198.671 50.1049 198.671 50.9283C198.672 54.567 198.477 58.2029 198.087 61.8206C198.087 61.8206 196.345 90.3388 137.659 165.793" stroke="white" stroke-width="6" stroke-miterlimit="10"/>
<path d="M51.6259 63.5822C52.1474 59.934 52.3768 51.9394 52.3768 51.1264C52.3768 50.3134 52.3768 49.3544 52.3768 48.4788" stroke="white" stroke-width="6" stroke-miterlimit="10"/>
<path d="M186.479 48.4788C186.479 49.3544 186.479 50.2404 186.479 51.1264C186.479 54.5035 186.312 57.8494 185.989 61.1432C185.989 61.1432 185.676 87.9207 136.084 151.003" stroke="white" stroke-width="6" stroke-miterlimit="10"/>
<path d="M174.454 48.4788C174.454 49.5212 174.454 50.6156 174.454 51.6892C174.454 54.6599 174.329 57.6096 174.068 60.5177C174.068 60.5177 170.313 88.2959 138.941 131.938" stroke="white" stroke-width="6" stroke-miterlimit="10"/>
<path d="M162.168 48.4788C162.168 49.4273 162.168 50.3759 162.168 51.3348C162.168 54.2221 162.043 57.0885 161.803 59.9132C161.803 59.9132 160.864 80.5514 136.105 118.075" stroke="white" stroke-width="6" stroke-miterlimit="10"/>
<path d="M149.986 48.4788C149.986 49.1042 149.986 49.7296 149.986 50.355C149.986 53.3917 149.854 56.3901 149.59 59.3503C149.59 59.3503 149.402 73.474 131.172 105.838" stroke="white" stroke-width="6" stroke-miterlimit="10"/>
<path d="M137.909 48.4788C137.909 49.3544 137.909 50.2404 137.909 51.1264C137.909 53.7253 137.811 56.2963 137.617 58.8396C137.617 58.8396 137.971 72.588 123.673 96.9264" stroke="white" stroke-width="6" stroke-miterlimit="10"/>
<path d="M125.54 48.4788C125.54 49.1042 125.54 49.7296 125.54 50.355C125.54 53.0442 125.122 55.9419 124.914 58.5686C124.914 58.5686 121.785 77.8726 115.684 89.7343" stroke="white" stroke-width="6" stroke-miterlimit="10"/>
<path d="M113.222 48.4684C113.222 48.9791 113.222 49.5107 113.222 49.9902C113.265 52.9459 113.052 55.8997 112.586 58.8188C111.135 67.0911 108.72 75.165 105.39 82.8758" stroke="white" stroke-width="6" stroke-miterlimit="10"/>
<path d="M101.229 48.4788C101.229 49.1355 101.229 49.7922 101.229 50.4384C101.304 52.6466 101.238 54.8575 101.03 57.0573C100.161 64.1949 98.4096 71.1972 95.8156 77.9039" stroke="white" stroke-width="6" stroke-miterlimit="10"/>
<path d="M88.8487 48.4788C88.8487 49.3752 88.8487 50.2925 88.8487 51.1994C88.8487 53.284 88.7548 53.7739 88.5567 56.5048C88.5567 56.5048 88.0664 61.9562 84.948 73.5156" stroke="white" stroke-width="6" stroke-miterlimit="10"/>
<path d="M76.521 48.4893C76.521 49.2293 76.521 49.9798 76.521 50.7303C76.521 52.8983 76.4585 55.0768 76.3334 57.224C76.1069 61.5321 75.718 64.9789 74.5707 69.315" stroke="white" stroke-width="6" stroke-miterlimit="10"/>
<path d="M64.694 48.4788C64.694 49.1563 64.694 49.8234 64.694 50.4905C64.694 52.6377 64.6314 54.7536 64.5167 56.8696C64.5167 56.8696 63.9327 62.0812 63.0149 66.2506" stroke="white" stroke-width="6" stroke-miterlimit="10"/>
<path d="M27.9093 48.4788C27.9093 49.6983 27.9093 50.9283 27.9093 52.1583C27.9093 54.4167 27.9788 56.9282 27.9093 59.1657" stroke="white" stroke-width="6" stroke-miterlimit="10"/>
<path d="M15.5921 48.4788C15.5921 49.5212 15.5921 50.5635 15.5921 51.6579C15.5921 53.5028 15.6442 54.2012 15.5921 57.8494" stroke="white" stroke-width="6" stroke-miterlimit="10"/>
</g>
<defs>
<clipPath id="clip0_815_238">
<rect width="263" height="245" fill="white"/>
</clipPath>
</defs>
</svg>
