<svg width="285" height="234" viewBox="0 0 285 234" fill="none" xmlns="http://www.w3.org/2000/svg">
<path fill-rule="evenodd" clip-rule="evenodd" d="M31.82 16.24L15.86 0H0V37.01H10.56V9.9L26.84 26.35H26.93H31.82H36.81L53.08 9.9V37.01H63.64V0H47.78L31.82 16.24Z" fill="white"/>
<path d="M143 0V37H153.56V26.49H198.19C201.606 26.49 204.882 25.133 207.298 22.7175C209.713 20.3021 211.07 17.026 211.07 13.61V12.91C211.07 9.48606 209.71 6.20234 207.289 3.78125C204.868 1.36016 201.584 0 198.16 0H143ZM197.89 17.07H153.56V9.56H197.56C198.95 9.56 200.77 11.28 200.89 13.27V13.34C200.93 15.39 199.27 17.07 197.89 17.07Z" fill="white"/>
<path d="M249.81 9.76L241.71 21.19H249.81V32.13H232.6L229.11 37.01H215.15L241.57 0H249.81V9.76Z" fill="white"/>
<path d="M249.81 9.76L257.91 21.19H249.81V32.13H267.02L270.52 37.01H284.47L258.05 0H249.81V9.76Z" fill="white"/>
<path d="M281.48 43.34C281.48 74.48 261.17 103.74 244.54 129.04" stroke="white" stroke-width="6" stroke-miterlimit="10"/>
<path d="M213.43 152.82C243.17 115.82 269.7 79.8201 269.7 43.3201" stroke="white" stroke-width="6" stroke-miterlimit="10"/>
<path d="M162.76 199C194.62 162.56 257.11 96.0901 258.09 43.3201" stroke="white" stroke-width="6" stroke-miterlimit="10"/>
<path d="M245.82 43.34C245.82 43.8 245.82 44.27 245.82 44.73C245.82 93.95 191.67 154.73 121.26 231.11" stroke="white" stroke-width="6" stroke-miterlimit="10"/>
<path d="M148.86 188.28C195.23 134.63 236.13 80.6301 234.47 44.4201C234.47 44.0601 234.47 43.6901 234.47 43.3201" stroke="white" stroke-width="6" stroke-miterlimit="10"/>
<path d="M222.61 43.34C222.61 43.69 222.61 44.03 222.61 44.34C222.61 77.12 202.07 109.34 162.7 158.49" stroke="white" stroke-width="6" stroke-miterlimit="10"/>
<path d="M211.06 43.34C211.06 43.66 211.06 43.97 211.06 44.29C211.06 72.29 195.62 99.53 165.48 139.54" stroke="white" stroke-width="6" stroke-miterlimit="10"/>
<path d="M199.22 43.34C199.22 43.54 199.22 43.74 199.22 43.94C198.65 72.3 186.42 92.78 165.94 124.57" stroke="white" stroke-width="6" stroke-miterlimit="10"/>
<path d="M187.63 43.34C187.63 43.67 187.63 44 187.63 44.34C187.63 66.09 178 87.78 161.77 112.56" stroke="white" stroke-width="6" stroke-miterlimit="10"/>
<path d="M175.86 43.34C175.86 43.95 175.86 44.56 175.86 45.17C176.33 61.08 169.86 77.81 157.4 99.53" stroke="white" stroke-width="6" stroke-miterlimit="10"/>
<path d="M164.35 43.34C164.35 44.26 164.41 45.18 164.41 46.09C164.41 60.01 160.21 71.84 150.41 91.21" stroke="white" stroke-width="6" stroke-miterlimit="10"/>
<path d="M152.43 43.5C152.43 56.38 148.98 72.24 142.42 84.24" stroke="white" stroke-width="6" stroke-miterlimit="10"/>
<path d="M140.93 43.5C140.873 54.1867 138.364 68.1422 133.81 77.81" stroke="white" stroke-width="6" stroke-miterlimit="10"/>
<path d="M129.43 43.5C129.376 51.8973 127.355 64.7111 123.76 72.3" stroke="white" stroke-width="6" stroke-miterlimit="10"/>
<path d="M35.4299 50.7201C35.4799 49.0101 35.4999 47.2901 35.4999 45.5701C35.4999 44.8201 35.4999 44.0701 35.4999 43.3201" stroke="white" stroke-width="6" stroke-miterlimit="10"/>
<path d="M117.43 43.5C117.438 50.6051 116.177 61.1764 113.97 67.93" stroke="white" stroke-width="6" stroke-miterlimit="10"/>
<path d="M105.64 43.34C105.64 44.06 105.64 44.78 105.64 45.5C105.634 51.7168 104.885 57.9107 103.41 63.95" stroke="white" stroke-width="6" stroke-miterlimit="10"/>
<path d="M35.4299 50.7201C35.4799 49.0101 35.4999 47.2901 35.4999 45.5701C35.4999 44.8201 35.4999 44.0701 35.4999 43.3201" stroke="white" stroke-width="6" stroke-miterlimit="10"/>
<path d="M35.4299 50.7201C35.4799 49.0101 35.4999 47.2901 35.4999 45.5701C35.4999 44.8201 35.4999 44.0701 35.4999 43.3201" stroke="white" stroke-width="6" stroke-miterlimit="10"/>
<path d="M93.5201 43.34C93.5201 44.09 93.5201 44.84 93.5201 45.59C93.5201 50.83 93.2967 56.0167 92.8501 61.15" stroke="white" stroke-width="6" stroke-miterlimit="10"/>
<path d="M81.9401 43.34C81.9401 44.09 81.9401 44.84 81.9401 45.59C81.9401 49.83 81.79 54.0333 81.49 58.2" stroke="white" stroke-width="6" stroke-miterlimit="10"/>
<path d="M35.4299 50.7201C35.4799 49.0101 35.4999 47.2901 35.4999 45.5701C35.4999 44.8201 35.4999 44.0701 35.4999 43.3201" stroke="white" stroke-width="6" stroke-miterlimit="10"/>
<path d="M35.4299 50.7201C35.4799 49.0101 35.4999 47.2901 35.4999 45.5701C35.4999 44.8201 35.4999 44.0701 35.4999 43.3201" stroke="white" stroke-width="6" stroke-miterlimit="10"/>
<path d="M70.51 43.34C70.51 44.09 70.51 44.84 70.51 45.59C70.51 49.0033 70.4133 52.3867 70.22 55.74" stroke="white" stroke-width="6" stroke-miterlimit="10"/>
<path d="M58.7601 43.34C58.7601 44.09 58.7601 44.84 58.7601 45.59C58.7601 48.2567 58.6968 50.9433 58.5701 53.65" stroke="white" stroke-width="6" stroke-miterlimit="10"/>
<path d="M35.4299 50.7201C35.4799 49.0101 35.4999 47.2901 35.4999 45.5701C35.4999 44.8201 35.4999 44.0701 35.4999 43.3201" stroke="white" stroke-width="6" stroke-miterlimit="10"/>
<path d="M24 50C24 48.3824 24 46.7554 24 45.1284C24 44.4189 24 43.7095 24 43" stroke="white" stroke-width="6" stroke-miterlimit="10"/>
<path d="M13 49C13 47.6135 13 46.2189 13 44.8243C13 44.2162 13 43.6081 13 43" stroke="white" stroke-width="6" stroke-miterlimit="10"/>
<path d="M3 49C3 47.6135 3 46.2189 3 44.8243C3 44.2162 3 43.6081 3 43" stroke="white" stroke-width="6" stroke-miterlimit="10"/>
<path d="M47.2201 43.34C47.2201 44.09 47.2201 44.84 47.2201 45.59C47.2201 47.73 47.1801 49.86 47.1001 51.98" stroke="white" stroke-width="6" stroke-miterlimit="10"/>
<path d="M154.63 180.9H154.62" stroke="white" stroke-width="6" stroke-miterlimit="10"/>
<path d="M72 37V0H82.3333V26.4286L118.5 0H134V37H123.667V7.92857L82.3333 37H72Z" fill="white"/>
</svg>
