<svg width="253" height="234" viewBox="0 0 253 234" fill="none" xmlns="http://www.w3.org/2000/svg">
<path fill-rule="evenodd" clip-rule="evenodd" d="M32.39 16.24L16.43 0H0.570007V37.01H11.13V9.9L27.41 26.35H27.5H32.39H37.38L53.65 9.9V37.01H64.21V0H48.35L32.39 16.24Z" fill="white"/>
<path d="M91.44 0H80.88V37.01H91.44V0Z" fill="white"/>
<path d="M109.06 0V37H119.62V26.49H164.25C167.666 26.49 170.942 25.133 173.358 22.7175C175.773 20.3021 177.13 17.026 177.13 13.61V12.91C177.13 9.48606 175.77 6.20234 173.349 3.78125C170.928 1.36016 167.644 0 164.22 0H109.06ZM163.95 17.07H119.62V9.56H163.62C165.01 9.56 166.83 11.28 166.95 13.27V13.34C166.99 15.39 165.33 17.07 163.95 17.07Z" fill="white"/>
<path d="M242 43C242 73.5223 222.207 102.202 206 127" stroke="white" stroke-width="6" stroke-miterlimit="10"/>
<path d="M176 150C205.069 113.845 231 78.6667 231 43" stroke="white" stroke-width="6" stroke-miterlimit="10"/>
<path d="M127 195C157.747 159.421 218.054 94.5226 219 43" stroke="white" stroke-width="6" stroke-miterlimit="10"/>
<path d="M207 43C207 43.4483 207 43.9064 207 44.3547C207 92.3243 154.398 151.56 86 226" stroke="white" stroke-width="6" stroke-miterlimit="10"/>
<path d="M113 184C157.931 131.816 197.561 79.2908 195.953 44.07C195.953 43.7198 195.953 43.3599 195.953 43" stroke="white" stroke-width="6" stroke-miterlimit="10"/>
<path d="M185 43C185 43.3404 185 43.6711 185 43.9726C185 75.8559 165.115 107.195 127 155" stroke="white" stroke-width="6" stroke-miterlimit="10"/>
<path d="M174 43C174 43.3127 174 43.6156 174 43.9283C174 71.2879 158.756 97.905 129 137" stroke="white" stroke-width="6" stroke-miterlimit="10"/>
<path d="M162 43C162 43.1945 162 43.389 162 43.5835C161.452 71.1649 149.692 91.0827 130 122" stroke="white" stroke-width="6" stroke-miterlimit="10"/>
<path d="M151 43C151 43.3242 151 43.6484 151 43.9824C151 65.349 141.69 86.6567 126 111" stroke="white" stroke-width="6" stroke-miterlimit="10"/>
<path d="M138.977 43C138.977 43.5971 138.977 44.1942 138.977 44.7913C139.434 60.3643 133.134 76.74 121 98" stroke="white" stroke-width="6" stroke-miterlimit="10"/>
<path d="M127.944 43C127.944 43.9033 128 44.8066 128 45.7C128 59.367 124.1 70.982 115 90" stroke="white" stroke-width="6" stroke-miterlimit="10"/>
<path d="M117 43C117 55.646 113.553 71.218 107 83" stroke="white" stroke-width="6" stroke-miterlimit="10"/>
<path d="M105 43C104.952 53.5902 102.838 67.4195 99 77" stroke="white" stroke-width="6" stroke-miterlimit="10"/>
<path d="M94 43C93.9525 51.164 92.1704 63.6219 89 71" stroke="white" stroke-width="6" stroke-miterlimit="10"/>
<path d="M3 51C3 49.1514 3 47.2919 3 45.4324C3 44.6216 3 43.8108 3 43" stroke="white" stroke-width="6" stroke-miterlimit="10"/>
<path d="M83 43C83.0089 49.98 81.5515 60.3653 79 67" stroke="white" stroke-width="6" stroke-miterlimit="10"/>
<path d="M71 43C71 43.6987 71 44.3974 71 45.096C70.9945 51.1289 70.3231 57.1395 69 63" stroke="white" stroke-width="6" stroke-miterlimit="10"/>
<path d="M3 51C3 49.1514 3 47.2919 3 45.4324C3 44.6216 3 43.8108 3 43" stroke="white" stroke-width="6" stroke-miterlimit="10"/>
<path d="M3 51C3 49.1514 3 47.2919 3 45.4324C3 44.6216 3 43.8108 3 43" stroke="white" stroke-width="6" stroke-miterlimit="10"/>
<path d="M59 43C59 43.758 59 44.516 59 45.274C59 47 59 52 58.5 60.5" stroke="white" stroke-width="6" stroke-miterlimit="10"/>
<path d="M48 43C48 43.7571 48 44.5141 48 45.2712C48 49.5512 48 53.7941 48 58" stroke="white" stroke-width="6" stroke-miterlimit="10"/>
<path d="M3 51C3 49.1514 3 47.2919 3 45.4324C3 44.6216 3 43.8108 3 43" stroke="white" stroke-width="6" stroke-miterlimit="10"/>
<path d="M3 51C3 49.1514 3 47.2919 3 45.4324C3 44.6216 3 43.8108 3 43" stroke="white" stroke-width="6" stroke-miterlimit="10"/>
<path d="M37 43C37 43.7258 37 44.4516 37 45.1774C37 48.4806 37 51.7548 37 55" stroke="white" stroke-width="6" stroke-miterlimit="10"/>
<path d="M26 43C26 43.7274 26 44.4549 26 45.1823C26 45.9098 26 47 26 53.5" stroke="white" stroke-width="6" stroke-miterlimit="10"/>
<path d="M3 51C3 49.1514 3 47.2919 3 45.4324C3 44.6216 3 43.8108 3 43" stroke="white" stroke-width="6" stroke-miterlimit="10"/>
<path d="M3 51C3 49.1514 3 47.2919 3 45.4324C3 44.6216 3 43.8108 3 43" stroke="white" stroke-width="6" stroke-miterlimit="10"/>
<path d="M14 43C14 43.7812 14 44.5625 14 45.3437C14 47.5729 14 49.7917 14 52" stroke="white" stroke-width="6" stroke-miterlimit="10"/>
<path fill-rule="evenodd" clip-rule="evenodd" d="M199 30L194 37.01H181L207.5 0H219.5L246 37.01H233.5L228.5 30H199ZM205.56 21.19L213.66 9.76L221.903 21.19H205.56Z" fill="white"/>
</svg>
