<svg width="64" height="64" viewBox="0 0 64 64" fill="none" xmlns="http://www.w3.org/2000/svg">
<path d="M32 58.6666L31.3333 50.6666H30.6667C24.3556 50.6666 19 48.4666 14.6 44.0666C10.2 39.6666 8 34.311 8 27.9999C8 21.6888 10.2 16.3333 14.6 11.9333C19 7.53325 24.3556 5.33325 30.6667 5.33325C33.8222 5.33325 36.7671 5.9217 39.5013 7.09859C42.2356 8.27547 44.6356 9.8977 46.7013 11.9653C48.7671 14.0328 50.3884 16.4328 51.5653 19.1653C52.7422 21.8977 53.3316 24.8426 53.3333 27.9999C53.3333 31.3333 52.7884 34.5333 51.6987 37.5999C50.6089 40.6666 49.12 43.511 47.232 46.1332C45.344 48.7555 43.0996 51.1333 40.4987 53.2666C37.8978 55.3999 35.0649 57.1999 32 58.6666ZM30.6 42.5999C31.3556 42.5999 32 42.3333 32.5333 41.7999C33.0667 41.2666 33.3333 40.6221 33.3333 39.8666C33.3333 39.111 33.0667 38.4666 32.5333 37.9333C32 37.3999 31.3556 37.1333 30.6 37.1333C29.8444 37.1333 29.2 37.3999 28.6667 37.9333C28.1333 38.4666 27.8667 39.111 27.8667 39.8666C27.8667 40.6221 28.1333 41.2666 28.6667 41.7999C29.2 42.3333 29.8444 42.5999 30.6 42.5999ZM28.6667 34.1333H32.6667C32.6667 32.7999 32.8 31.8666 33.0667 31.3333C33.3333 30.7999 34.1778 29.8221 35.6 28.3999C36.4 27.5999 37.0667 26.7333 37.6 25.7999C38.1333 24.8666 38.4 23.8666 38.4 22.7999C38.4 20.5333 37.6329 18.8328 36.0987 17.6986C34.5644 16.5644 32.7538 15.9981 30.6667 15.9999C28.7111 15.9999 27.0667 16.5448 25.7333 17.6346C24.4 18.7244 23.4667 20.0461 22.9333 21.5999L26.6667 23.0666C26.8889 22.311 27.3111 21.5661 27.9333 20.8319C28.5556 20.0977 29.4667 19.7315 30.6667 19.7333C31.8667 19.7333 32.7662 20.0666 33.3653 20.7333C33.9644 21.3999 34.2649 22.1333 34.2667 22.9333C34.2667 23.6888 34.0444 24.367 33.6 24.9679C33.1556 25.5688 32.6222 26.1795 32 26.7999C30.4444 28.1333 29.4996 29.1893 29.1653 29.9679C28.8311 30.7466 28.6649 32.135 28.6667 34.1333Z" fill="#0062FF"/>
</svg>
